<svg id="Ebene_1" data-name="Ebene 1" xmlns="http://www.w3.org/2000/svg" xmlns:xlink="http://www.w3.org/1999/xlink" viewBox="0 0 400 400"><defs><style>.cls-1{fill:url(#Unbenannter_Verlauf);}.cls-2{fill:#fff;}</style><linearGradient id="Unbenannter_Verlauf" x1="287.67432" y1="-40.88321" x2="112.32568" y2="440.88321" gradientTransform="matrix(1, 0, 0, -1, 0, 400)" gradientUnits="userSpaceOnUse"><stop offset="0" stop-color="#296a9f"/><stop offset="0.03913" stop-color="#275e8c"/><stop offset="0.1076" stop-color="#234d71"/><stop offset="0.18635" stop-color="#213f5b"/><stop offset="0.27833" stop-color="#1f354a"/><stop offset="0.39202" stop-color="#1d2d3f"/><stop offset="0.55153" stop-color="#1c2938"/><stop offset="0.99438" stop-color="#1c2836"/></linearGradient></defs><title>appicon</title><rect class="cls-1" width="400" height="400"/><path class="cls-2" d="M43.16068,235.665,22,180.13063H37.84568L48.575,211.77229a56.46985,56.46985,0,0,1,2.23528,11.37511h.298a49.455,49.455,0,0,1,2.23529-11.37511l10.67968-31.64166H79.869L58.70831,235.665Z"/><path class="cls-2" d="M133.4661,235.665l-5.26534-17.28618H101.72509L96.45975,235.665H79.869l25.63124-72.91989h18.826L150.05683,235.665ZM124.525,205.46382q-7.30194-23.4943-8.22087-26.575-.91945-3.07944-1.31634-4.868-1.6392,6.35865-9.38818,31.443Z"/><path class="cls-2" d="M190.04358,174.81563q-8.693,0-13.46136,6.532-4.76862,6.533-4.7686,18.20513,0,24.29007,18.23,24.29007,7.64911,0,18.528-3.82481v12.915a51.45367,51.45367,0,0,1-19.96853,3.72547q-15.84592,0-24.24039-9.61171-8.395-9.61172-8.39473-27.59334a45.05446,45.05446,0,0,1,4.12285-19.84434,29.7969,29.7969,0,0,1,11.847-13.064A35.045,35.045,0,0,1,190.0436,162a48.87289,48.87289,0,0,1,21.26,5.11631l-4.96728,12.5176a82.38452,82.38452,0,0,0-8.196-3.37777A24.45664,24.45664,0,0,0,190.04358,174.81563Z"/><path class="cls-2" d="M284.27317,198.65865q0,17.93294-10.2078,27.46913-10.2078,9.53718-29.48089,9.5372H224.01987V163.04314h22.79988q17.78245,0,27.61815,9.38818Q284.27318,181.81952,284.27317,198.65865Zm-15.99469.39738q0-23.396-20.66394-23.396h-8.196v47.28865h6.6065q22.25292.00006,22.25341-23.89265Z"/><path class="cls-2" d="M330.07163,235.665l-17.4849-56.97487h-.447q.94328,17.386.94379,23.19726V235.665h-13.7594V163.04314h20.962L337.473,218.5775h.298l18.23-55.53436h20.962V235.665H362.60746V201.29131q0-2.43348.07452-5.613.07452-3.17858.67059-16.88879h-.44711L344.17878,235.665Z"/></svg>