<svg id="Ebene_1" data-name="Ebene 1" xmlns="http://www.w3.org/2000/svg" viewBox="0 0 354.96299 74.67348"><defs><style>.cls-1{fill:#fff;}</style></defs><title>appiconfg</title><path class="cls-1" d="M20.66063,73.66724-.5,18.13289H15.34563L26.075,49.77455a56.46985,56.46985,0,0,1,2.23528,11.37511h.298a49.455,49.455,0,0,1,2.23529-11.37511L41.52323,18.13289H57.36894L36.20826,73.66724Z" transform="translate(0.50005 0.00752)"/><path class="cls-1" d="M110.96605,73.66724l-5.26533-17.28618H79.225L73.9597,73.66724H57.36894L83.00019.74735h18.826l25.73059,72.91989Zm-8.94113-30.20116q-7.30194-23.4943-8.22087-26.575-.91946-3.07944-1.31634-4.868-1.6392,6.35865-9.38818,31.443Z" transform="translate(0.50005 0.00752)"/><path class="cls-1" d="M167.54354,12.81789q-8.693,0-13.46137,6.532-4.76862,6.533-4.7686,18.20513,0,24.29007,18.23,24.29007,7.64911,0,18.528-3.82481v12.915A51.45375,51.45375,0,0,1,166.103,74.66074q-15.84592,0-24.24039-9.61171-8.395-9.61172-8.39473-27.59334a45.05453,45.05453,0,0,1,4.12285-19.84435,29.79693,29.79693,0,0,1,11.847-13.064A35.04515,35.04515,0,0,1,167.54355.00227a48.87287,48.87287,0,0,1,21.26,5.11632l-4.96728,12.5176a82.38354,82.38354,0,0,0-8.196-3.37777A24.45663,24.45663,0,0,0,167.54354,12.81789Z" transform="translate(0.50005 0.00752)"/><path class="cls-1" d="M261.77312,36.66091q0,17.93294-10.2078,27.46913-10.2078,9.53718-29.48089,9.5372H201.51982V1.0454H224.3197q17.78245,0,27.61815,9.38818Q261.77314,19.82178,261.77312,36.66091Zm-15.99469.39738q0-23.396-20.66394-23.396h-8.196V60.95094H223.525q22.25292,0,22.2534-23.89265Z" transform="translate(0.50005 0.00752)"/><path class="cls-1" d="M307.57158,73.66724,290.08669,16.69237h-.447q.94326,17.386.94378,23.19726V73.66724h-13.7594V1.0454h20.962l17.18683,55.53436h.298l18.23-55.53436h20.962V73.66724H340.10741V39.29357q0-2.43348.07452-5.613.07454-3.17858.6706-16.8888h-.44712L321.67873,73.66728Z" transform="translate(0.50005 0.00752)"/></svg>