<svg id="Ebene_1" data-name="Ebene 1" xmlns="http://www.w3.org/2000/svg" viewBox="0 0 354.96289 74.65844"><defs><style>.cls-1{fill:#fff;}</style></defs><title>appiconfg</title><path class="cls-1" d="M43.17923,236.83576,22.01855,181.30141H37.86423l10.72935,31.64166a56.47,56.47,0,0,1,2.23528,11.37511h.298a49.45452,49.45452,0,0,1,2.23529-11.37511l10.67968-31.64166H79.88754L58.72686,236.83576Z" transform="translate(-22.01855 -163.17078)"/><path class="cls-1" d="M133.48465,236.83576l-5.26533-17.28618H101.74364L96.4783,236.83576H79.88754l25.63124-72.91989h18.826l25.73059,72.91989Zm-8.94113-30.20115q-7.30193-23.4943-8.22087-26.575-.91945-3.07947-1.31634-4.868-1.6392,6.35864-9.38818,31.443Z" transform="translate(-22.01855 -163.17078)"/><path class="cls-1" d="M190.06214,175.9864q-8.693,0-13.46137,6.532-4.76861,6.533-4.7686,18.20514,0,24.29007,18.23,24.29007,7.64913,0,18.528-3.82482v12.915a51.45394,51.45394,0,0,1-19.96853,3.72547q-15.84591,0-24.24039-9.61171-8.395-9.61173-8.39473-27.59333a45.05454,45.05454,0,0,1,4.12285-19.84434,29.797,29.797,0,0,1,11.847-13.064,35.045,35.045,0,0,1,18.10579-4.54507,48.87271,48.87271,0,0,1,21.26,5.11631l-4.96729,12.51759a82.383,82.383,0,0,0-8.196-3.37776A24.45676,24.45676,0,0,0,190.06214,175.9864Z" transform="translate(-22.01855 -163.17078)"/><path class="cls-1" d="M284.29172,199.82942q0,17.93292-10.20779,27.46914-10.20778,9.53719-29.48089,9.5372h-20.5646V164.21391h22.79988q17.78242,0,27.61816,9.38819Q284.29173,182.99029,284.29172,199.82942Zm-15.99469.39738q0-23.396-20.66394-23.396h-8.196v47.28865h6.6065Q268.29654,224.11949,268.297,200.2268Z" transform="translate(-22.01855 -163.17078)"/><path class="cls-1" d="M330.09018,236.83576,312.6053,179.86089h-.447q.94329,17.386.94378,23.19727v33.7776h-13.7594V164.21391h20.962l17.18684,55.53436h.298l18.23-55.53436h20.962v72.62185H362.626V202.46208q0-2.43348.07451-5.613.07452-3.17858.67059-16.8888H362.924l-18.7267,56.87552Z" transform="translate(-22.01855 -163.17078)"/></svg>