<svg id="Ebene_1" data-name="Ebene 1" xmlns="http://www.w3.org/2000/svg" viewBox="0 0 400 400"><defs><style>.cls-1{fill:#fff;}</style></defs><title>about</title><path class="cls-1" d="M200,7a193.05277,193.05277,0,0,1,75.12213,370.836A193.0518,193.0518,0,0,1,124.87787,22.164,191.78538,191.78538,0,0,1,200,7m0-7C89.54307,0,0,89.54307,0,200S89.54307,400,200,400s200-89.54306,200-200S310.45694,0,200,0Z"/><path class="cls-1" d="M185.791,106.03027q0-8.3496,4.10156-12.23144a15.18373,15.18373,0,0,1,20.36133.07324q4.24658,3.95508,4.248,12.1582,0,8.20533-4.248,12.23145A14.18615,14.18615,0,0,1,200.14648,122.29a14.03639,14.03639,0,0,1-10.2539-4.02832Q185.78956,114.23487,185.791,106.03027ZM212.1582,310.083H187.8418V149.53613h24.3164Z"/></svg>