<svg id="Ebene_1" data-name="Ebene 1" xmlns="http://www.w3.org/2000/svg" viewBox="0 0 289 362"><defs><style>.cls-1{fill:#fff;}.cls-2{fill:none;stroke:#fff;stroke-miterlimit:10;stroke-width:14px;}</style></defs><title>noflights</title><path class="cls-1" d="M339,32V366H78V32H339m14-14H64V380H353V18Z" transform="translate(-64 -18)"/><path class="cls-1" d="M176.97217,106.28613h-8.71582V121.29h-14.9541V106.28613H122.40234V95.63965L154.144,48.894h14.11231V94.40137h8.71582ZM153.30225,94.40137V82.12109q0-3.06957.24755-8.91357.24684-5.84253.396-6.78369h-.396a55.33476,55.33476,0,0,1-4.40722,7.92285l-13.271,20.05469Z" transform="translate(-64 -18)"/><path class="cls-1" d="M232.82813,85.09229q0,18.96606-6.21485,28.07666-6.21387,9.11205-19.13867,9.11132-12.52808,0-18.89111-9.4082-6.36328-9.408-6.36329-27.77978,0-19.16382,6.19043-28.25049,6.189-9.08643,19.064-9.08643,12.52734,0,18.94141,9.50733Q232.8291,66.77025,232.82813,85.09229Zm-35.40577,0q0,13.32128,2.30274,19.08935,2.302,5.76928,7.74951,5.76856,5.34962,0,7.72461-5.84327,2.37891-5.8418,2.37695-19.01464,0-13.32057-2.40039-19.13916-2.40234-5.81763-7.70117-5.81836-5.39649,0-7.72412,5.81836Q197.42138,71.77222,197.42236,85.09229Z" transform="translate(-64 -18)"/><path class="cls-1" d="M292.74609,106.28613h-8.71484V121.29H269.07617V106.28613H238.17773V95.63965L269.918,48.894h14.11328V94.40137h8.71484ZM269.07617,94.40137V82.12109q0-3.06957.24805-8.91357.24609-5.84253.39648-6.78369h-.39648a55.34382,55.34382,0,0,1-4.4082,7.92285L251.64648,94.40137Z" transform="translate(-64 -18)"/><line class="cls-2" x1="75.99976" y1="127" x2="213.99976" y2="127"/><path class="cls-1" d="M138,322.90708c.83448-1.96445,1.43447-4.003,2.1388-6.00854q1.567-4.46183,3.09993-8.93419a1.4586,1.4586,0,0,1,.66039-.70342q6.196-4.27878,12.39094-8.55885,11.28946-7.79933,22.57962-15.59775,8.22992-5.67767,16.484-11.32412a2.37012,2.37012,0,0,0,1.23056-2.22559q-.191-12.15947-.24018-24.32072a92.739,92.739,0,0,1,.898-15.70278,21.90566,21.90566,0,0,1,1.643-5.56175,9.44739,9.44739,0,0,1,7.00908-5.576,16.03788,16.03788,0,0,1,8.0941.26971,9.03358,9.03358,0,0,1,5.653,4.92584,23.09174,23.09174,0,0,1,1.95142,7.04612,87.09168,87.09168,0,0,1,.63883,12.18342c-.00491,5.70157-.09508,11.40311-.15534,17.1046-.03448,3.26249-.06388,6.52523-.13739,9.787a1.73175,1.73175,0,0,0,.86947,1.66216q9.9532,6.72818,19.85987,13.51737,7.083,4.83875,14.14893,9.69958,8.91153,6.093,17.84635,12.15556a3.26232,3.26232,0,0,1,1.54355,2.15174c.8272,3.98918,1.72927,7.96455,2.56532,11.95218.16341.77941.44971,1.83635-.08433,2.312-.47608.424-1.3521-.37221-2.0249-.667q-11.7655-5.15619-23.51189-10.35109-10.59423-4.66862-21.18935-9.33543-5.75968-2.53987-11.51286-5.09273c-1.07476-.4764-1.06353-.48263-1.10847.61615-.26369,6.44759-.54012,12.89474-.795,19.34264-.20416,5.16414-.375,10.32946-.58785,15.49326a1.26933,1.26933,0,0,0,.56393,1.15361q9.94227,8.09949,19.85917,16.22657a5.61605,5.61605,0,0,0,.53487.39928,1.57978,1.57978,0,0,1,.79941,1.70786c-.23993,1.86-.40529,3.72967-.54729,5.599-.053.69744-.29648.87308-1.01261.66544-3.34521-.96988-6.69989-1.9109-10.05285-2.857q-6.991-1.97252-13.98685-3.92954a4.21215,4.21215,0,0,0-1.09793-.10813c-2.24971-.00941-4.49971.01314-6.74909-.01376a8.95632,8.95632,0,0,0-2.499.47032q-11.39373,3.12367-22.7785,6.27611c-.818.228-.97663-.02948-1.03583-.71069-.16692-1.92009-.37475-3.83731-.59251-5.753a1.2316,1.2316,0,0,1,.51255-1.19439c1.87431-1.52291,3.72956-3.06659,5.6002-4.59355q5.54688-4.52781,11.10287-9.04578c1.39882-1.13919,2.78614-2.29143,4.20738-3.40529a1.02318,1.02318,0,0,0,.38291-.99166q-.25922-5.3747-.508-10.74985-.34509-7.26069-.69481-14.52118c-.15573-3.2356-.333-6.47043-.45872-9.70705-.02906-.74783-.34379-.61524-.83876-.40211q-5.74681,2.47461-11.5029,4.93011-18.42924,7.87668-36.85971,15.75087-5.67666,2.42605-11.35208,4.85472c-.308.13141-.63511.22308-.95335.33321Z" transform="translate(-64 -18)"/><line class="cls-2" x1="144" y1="127" x2="144" y2="188"/></svg>