<svg id="Ebene_1" data-name="Ebene 1" xmlns="http://www.w3.org/2000/svg" viewBox="0 0 397.00001 397.00906"><defs><style>.cls-1{fill:#fff;}</style></defs><title>plane_outline</title><path class="cls-1" d="M201.10732,9.99091a35.13316,35.13316,0,0,1,10.00207,1.45285,15.42764,15.42764,0,0,1,9.65907,8.41668l.05815.12793.06162.12628c2.15224,4.40839,3.564,9.60178,4.57739,16.83924,1.42754,10.19333,1.71285,20.52777,1.70215,32.90884-.01022,11.83078-.15408,23.88754-.29315,35.5474q-.07467,6.25822-.14369,12.51648l-.02977,2.84844c-.08316,7.98893-.16912,16.24726-.34958,24.34353A14.91032,14.91032,0,0,0,233.427,158.7133c18.50659,12.51081,37.22141,25.24922,55.64258,37.8736,13.22082,9.03184,26.61554,18.21438,39.83554,27.30868,16.65768,11.38909,33.57382,22.91109,50.2786,34.24593l.242.16414c1.2261,5.90138,2.52365,11.86062,3.77911,17.62694q.49993,2.29611,1.00739,4.63173c-18.61844-8.17106-37.39072-16.44132-55.95239-24.65027q-29.8305-13.14566-59.65986-26.28446c-10.74075-4.73639-21.64013-9.55777-32.39929-14.33192l-.08809-.039a14.84559,14.84559,0,0,0-6.32806-1.67847c-2.40477-.00053-10.2867.86993-10.74486,12.09431l-.00369.09177q-.41377,10.11521-.8373,20.23016c-.46724,11.22223-.95031,22.82654-1.40178,34.24592q-.382,9.66369-.72738,19.32885c-.29062,7.924-.5911,16.11673-.92246,24.16442a13.58864,13.58864,0,0,0,5.51583,11.73615c18.43245,15.01636,37.08885,30.26026,55.457,45.313-.14725,1.27713-.28226,2.53942-.4064,3.77343-5.06943-1.445-10.13306-2.87243-15.09079-4.27005l-4.20938-1.187c-13.0957-3.695-26.35309-7.41962-39.40386-11.07039l-.20861-.05838-.211-.04923a21.89184,21.89184,0,0,0-4.97269-.57308q-.255,0-.5101.006-1.80492-.00711-3.61075-.00637-1.87177,0-3.74345.00347-1.85781.00266-3.71555.00346c-3.122,0-5.49577-.01177-7.69684-.03808l-.27777-.00331-.27754.01216a35.20065,35.20065,0,0,0-9.51369,1.74434c-18.27871,5.01157-36.758,10.09976-55.0729,15.16414-.13807-1.30546-.27709-2.583-.41423-3.82118,2.09158-1.71065,4.1762-3.4269,6.21144-5.10246q3.49683-2.87884,7.00215-5.74846c10.36023-8.45684,20.87346-17.02215,31.25316-25.46269q1.50841-1.22838,3.0126-2.46162c2.84064-2.32491,5.77756-4.72868,8.67743-7.00158a12.831,12.831,0,0,0,4.888-11.57621q-.71886-14.91233-1.40975-29.83767-.97176-20.44684-1.95654-40.89277-.19442-4.03857-.39931-8.07676c-.315-6.289-.64076-12.79209-.8883-19.16246-.28592-7.36071-5.68616-11.2127-10.8724-11.21347a13.22533,13.22533,0,0,0-5.43669,1.28469c-10.71484,4.61385-21.60145,9.27977-32.36346,13.87093Q82.61254,251.212,30.71808,273.38329q-7.24641,3.0969-14.49215,6.19536c2.4236-6.91536,4.84832-13.90356,7.2284-20.83248q16.86512-11.64675,33.72836-23.2975,31.78709-21.96012,63.57139-43.91438c15.37145-10.60454,30.97631-21.32462,46.36184-31.84963,5.29646-3.6053,7.933-8.54776,7.83655-14.69015-.35631-22.68152-.58347-45.68192-.67516-68.35138-.04469-15.21717.10439-28.92053,2.39038-42.52753l.00992-.059.00923-.05914a51.69116,51.69116,0,0,1,3.87609-13.12107l.03076-.06884.02969-.06931a16.557,16.557,0,0,1,12.31609-9.798l.21553-.03879.21355-.04822a35.21571,35.21571,0,0,1,7.73877-.8623m0-10a45.1573,45.1573,0,0,0-9.94,1.1076,26.60059,26.60059,0,0,0-19.73523,15.70017,61.67846,61.67846,0,0,0-4.62616,15.66006c-2.46208,14.65485-2.57191,29.4404-2.52853,44.21378q.13845,34.242.6763,68.47908c.04631,2.94769-1.06268,4.63137-3.46484,6.26654q-23.24078,15.8985-46.41339,31.88491Q83.28608,205.26086,51.4987,227.22113,34.05577,239.27236,16.60992,251.32a4.10682,4.10682,0,0,0-1.85938,1.98062q-4.31619,12.59271-8.72838,25.15568C4.039,284.10313,2.34962,289.84313,0,295.37436v1.81184c.89608-.31007,1.81708-.56823,2.68431-.93822Q18.66438,289.4097,34.648,282.57867q51.89412-22.171,103.78469-44.34916,16.20715-6.914,32.38831-13.88153a4.39694,4.39694,0,0,1,1.4798-.46939c.522.00007.83485.39143.88189,1.60154.35408,9.11331.85315,18.22145,1.29161,27.33185q.98471,20.44315,1.95632,40.88684.70061,15.13453,1.43046,30.268a2.88089,2.88089,0,0,1-1.07815,2.79215c-4.00177,3.13624-7.908,6.38062-11.84662,9.58816q-15.64372,12.721-31.262,25.46992c-5.26709,4.29939-10.49086,8.64593-15.76832,12.93393a3.46782,3.46782,0,0,0-1.44316,3.363c.61316,5.394,1.19839,10.7923,1.66839,16.19861.1269,1.4608.41606,2.22945,1.56428,2.22945a5.20729,5.20729,0,0,0,1.35226-.22837q32.05569-8.87619,64.13662-17.67146a25.21852,25.21852,0,0,1,7.03645-1.32431c2.60548.03117,5.2105.03877,7.81638.03877,2.4864,0,4.97252-.00693,7.459-.00692q1.86339,0,3.72788.00692.19658-.00653.393-.00652a11.86445,11.86445,0,0,1,2.69835.311q19.69812,5.51031,39.38231,11.06431c9.44084,2.66377,18.88646,5.31338,28.30546,8.04423A4.872,4.872,0,0,0,283.315,397c1.02347,0,1.42887-.64841,1.53946-2.10392.39984-5.26354.86539-10.528,1.54093-15.76507a4.448,4.448,0,0,0-2.25086-4.80877,15.8122,15.8122,0,0,1-1.506-1.12423q-27.92262-22.8832-55.91686-45.68862a3.57392,3.57392,0,0,1-1.58784-3.24815c.59923-14.53955,1.08038-29.08339,1.65523-43.62385.71769-18.15515,1.496-36.30823,2.23846-54.46246.076-1.85926.09482-2.59482.75458-2.59472a8.20772,8.20772,0,0,1,2.3665.85979q16.19907,7.188,32.41644,14.33946,29.83237,13.14026,59.66217,26.28547,33.07384,14.62707,66.20169,29.14523c1.51041.66189,3.38428,2.221,4.76139,2.221a1.36038,1.36038,0,0,0,.94-.34289c1.50369-1.33924.69754-4.31516.23746-6.50978-2.354-11.22776-4.89392-22.42115-7.22309-33.65331a9.18579,9.18579,0,0,0-4.34613-6.05861q-25.15744-17.07024-50.24939-34.226-19.89541-13.68647-39.83871-27.31085-27.89374-19.11612-55.91876-38.06038a4.876,4.876,0,0,1-2.44815-4.68008c.207-9.18416.28978-18.37093.38685-27.557.1697-16.05353.42354-32.10715.43738-48.16092.00992-11.45523-.20384-22.91556-1.79877-34.30438-.95631-6.82947-2.41246-13.52662-5.49453-19.83954A25.43535,25.43535,0,0,0,213.95761,1.85791a45.15538,45.15538,0,0,0-12.85034-1.867Z" transform="translate(0 0.00909)"/></svg>