<svg id="Ebene_1" data-name="Ebene 1" xmlns="http://www.w3.org/2000/svg" viewBox="0 0 377.8577 397.40761"><defs><style>.cls-1{fill:#fff;}</style></defs><title>planes</title><path class="cls-1" d="M11.38069,50.72468c3.20491-1.29387,6.2262-2.94112,9.32906-4.431Q27.613,42.979,34.48932,39.61319A2.362,2.362,0,0,1,36.051,39.5639q11.994,2.19528,23.98841,4.3879,21.85748,3.99638,43.71472,7.99455c10.61651,1.94828,21.23364,3.89289,31.84145,5.90826a3.838,3.838,0,0,0,3.95744-1.13935Q153.25734,42.57344,167.12624,28.592c5.99018-6.02552,12.04767-11.99365,19.00859-16.9521a35.47381,35.47381,0,0,1,8.24977-4.48713A15.29849,15.29849,0,0,1,208.795,8.7937a25.97085,25.97085,0,0,1,8.95926,9.57692,14.6284,14.6284,0,0,1,.8326,12.11319,37.39337,37.39337,0,0,1-5.83367,10.30257,141.03013,141.03013,0,0,1-13.219,14.682C193,61.99133,186.36828,68.41657,179.77083,74.876c-3.77518,3.69621-7.54482,7.39852-11.36387,11.04924a2.80427,2.80427,0,0,0-.90767,2.89881q3.6928,19.1009,7.26243,38.21836c1.71315,9.10059,3.38509,18.20651,5.09469,27.30757,2.15157,11.45386,4.296,22.90879,6.51622,34.35344a5.28279,5.28279,0,0,1-.6964,4.23127c-3.6206,5.515-7.13966,11.09985-10.74835,16.62315-.70535,1.07958-1.58776,2.61764-2.74388,2.55078-1.03066-.05961-1.12205-1.9744-1.55481-3.08238q-7.56795-19.37609-15.06968-38.77457-6.78507-17.47661-13.57323-34.95217-3.68684-9.50331-7.35135-19.01409c-.68515-1.77614-.66515-1.77042-1.97477-.56373q-11.527,10.62125-23.05847,21.23781c-6.14693,5.67939-12.25712,11.39823-18.41355,17.06735a2.05547,2.05547,0,0,0-.67522,1.96664q2.11007,20.6586,4.15949,41.31973a9.09264,9.09264,0,0,0,.15524,1.06963,2.55814,2.55814,0,0,1-1.04022,2.87093c-2.40447,1.855-4.73469,3.80657-7.0378,5.78446-.85925.73792-1.33918.66022-1.92143-.39752-2.71985-4.941-5.48359-9.85971-8.2396-14.78227q-5.74631-10.26361-11.516-20.51505a6.8215,6.8215,0,0,0-1.13337-1.381c-2.56524-2.58678-5.16739-5.13733-7.71223-7.74376a14.50357,14.50357,0,0,0-3.4-2.32295q-16.623-9.46955-33.26876-18.89592c-1.19774-.67566-1.08452-1.15205-.37231-1.99984,2.00747-2.38971,3.96478-4.823,5.909-7.26593a1.99439,1.99439,0,0,1,1.95451-.78074c3.89.40238,7.78188.75914,11.67228,1.15266q11.536,1.1669,23.07106,2.35546c2.90614.2973,5.814.56647,8.71685.91843a1.65688,1.65688,0,0,0,1.57394-.697q5.85746-6.45108,11.72732-12.89075,7.91868-8.70893,15.83179-17.423c3.52659-3.88321,7.02767-7.79017,10.58974-11.64024.823-.88956.31084-1.0981-.5-1.42083q-9.41388-3.74684-18.81649-7.52614Q60.79448,71.69872,30.67452,59.61134q-9.278-3.72208-18.55747-7.43975c-.50313-.20222-.98268-.47179-1.47317-.71009Z" transform="translate(-10.64388 -6.06328)"/><path class="cls-1" d="M387.73339,356.90809c-3.34135,1.349-6.49127,3.06634-9.72623,4.61967q-7.19714,3.45579-14.36621,6.96488a2.46257,2.46257,0,0,1-1.62814.05139q-12.50466-2.28873-25.00967-4.57471-22.788-4.1665-45.57583-8.3349c-11.06849-2.03124-22.13764-4.05863-33.19706-6.15981a4.00144,4.00144,0,0,0-4.12592,1.18787q-14.28782,14.74388-28.74715,29.32059c-6.24521,6.28205-12.56059,12.50426-19.81787,17.67381a36.98336,36.98336,0,0,1-8.601,4.67816,15.94976,15.94976,0,0,1-15.02394-1.71081,27.07644,27.07644,0,0,1-9.34069-9.98464,15.25122,15.25122,0,0,1-.86805-12.6289,38.98535,38.98535,0,0,1,6.082-10.74118,147.03514,147.03514,0,0,1,13.78182-15.3071c6.81235-6.80063,13.72644-13.49942,20.60477-20.23387,3.9359-3.85357,7.866-7.7135,11.84767-11.51964a2.92367,2.92367,0,0,0,.94631-3.02223q-3.85-19.91409-7.57161-39.84546c-1.7861-9.488-3.52921-18.98163-5.3116-28.47016-2.24317-11.94148-4.47891-23.8841-6.79364-35.816a5.50773,5.50773,0,0,1,.726-4.41141c3.77474-5.74975,7.44362-11.57241,11.206-17.33085.73538-1.12554,1.65535-2.72909,2.8607-2.65938,1.07454.06214,1.16981,2.05845,1.621,3.21361q7.89015,20.201,15.71125,40.42534,7.07394,18.22066,14.15109,36.44022,3.84381,9.9079,7.66433,19.82359c.71432,1.85175.69347,1.84579,2.05884.58773q12.01781-11.07344,24.04016-22.142c6.40863-5.92117,12.779-11.88348,19.19748-17.794a2.143,2.143,0,0,0,.704-2.05037q-2.1999-21.53811-4.33657-43.07886a9.4825,9.4825,0,0,0-.16186-1.11518,2.667,2.667,0,0,1,1.08451-2.99315c2.50684-1.934,4.93626-3.96863,7.33742-6.03073.89584-.76933,1.3962-.68832,2.00324.41445,2.83564,5.15131,5.717,10.27947,8.59039,15.41161q5.991,10.70057,12.00632,21.38844a7.1116,7.1116,0,0,0,1.18162,1.43978c2.67445,2.69691,5.38738,5.356,8.04057,8.07344a15.12127,15.12127,0,0,0,3.5448,2.42185q17.33076,9.8727,34.68514,19.70039c1.24873.70442,1.1307,1.2011.38816,2.085-2.09294,2.49145-4.13358,5.02832-6.16059,7.57527a2.07931,2.07931,0,0,1-2.03773.814c-4.05558-.4195-8.11318-.79145-12.1692-1.20173q-12.02711-1.21656-24.05329-2.45574c-3.02986-.31-6.06157-.59059-9.088-.95753a1.72745,1.72745,0,0,0-1.64095.72672q-6.10681,6.72571-12.22659,13.43955-8.25581,9.0797-16.50581,18.16472c-3.67672,4.04853-7.32686,8.12183-11.04058,12.13581-.85806.92743-.32407,1.14485.52128,1.48132q9.81465,3.90634,19.61757,7.84656,31.40379,12.59758,62.80605,25.19956,9.673,3.88055,19.34754,7.7565c.52454.21082,1.0245.49188,1.53589.74032Z" transform="translate(-10.64388 -6.06328)"/></svg>