<svg id="Ebene_1" data-name="Ebene 1" xmlns="http://www.w3.org/2000/svg" viewBox="0 0 397.00001 397.00001"><defs><style>.cls-1{fill:#fff;}</style></defs><title>Plane</title><path class="cls-1" d="M1.00013,295.37436c2.34962-5.53126,4.039-11.27125,6.02216-16.91806q4.41215-12.563,8.72835-25.15569A4.10706,4.10706,0,0,1,17.61009,251.32q17.4458-12.04761,34.88876-24.09888,31.7874-21.9603,63.57672-43.91809,23.17269-15.9864,46.4134-31.88493c2.40216-1.63512,3.51116-3.31882,3.46485-6.26653q-.53784-34.237-.67626-68.47908c-.04344-14.77335.06643-29.55888,2.52847-44.21379a61.6807,61.6807,0,0,1,4.62618-15.66005A26.60071,26.60071,0,0,1,192.16745,1.09847a45.15749,45.15749,0,0,1,22.7903.75942,25.43558,25.43558,0,0,1,15.91689,13.86953c3.08207,6.31292,4.53817,13.01007,5.49453,19.83954,1.59487,11.38888,1.80862,22.84916,1.79875,34.30446-.01382,16.05373-.26773,32.10735-.4374,48.16085-.09709,9.18609-.17987,18.37288-.38684,27.557a4.876,4.876,0,0,0,2.44812,4.68008q28.02494,18.94431,55.91878,38.06043,19.94331,13.62431,39.83869,27.31081,25.09188,17.15578,50.24939,34.226a9.18564,9.18564,0,0,1,4.34613,6.05859c2.32913,11.2322,4.86906,22.42554,7.22308,33.65335.46011,2.19458,1.26625,5.17055-.23742,6.5098-1.34048,1.19391-3.80708-1.048-5.70144-1.87816q-33.12777-14.51812-66.20168-29.14524-29.82982-13.14526-59.66215-26.28548Q249.34786,231.628,233.14879,224.44c-3.02616-1.34137-2.99454-1.35892-3.12109,1.73488-.74246,18.15428-1.52079,36.30731-2.23851,54.46244-.57485,14.54049-1.056,29.08433-1.65516,43.62388a3.574,3.574,0,0,0,1.58781,3.24818Q255.716,350.31486,283.63868,373.198a15.81177,15.81177,0,0,0,1.506,1.12424,4.44807,4.44807,0,0,1,2.25086,4.80877c-.67554,5.23707-1.14113,10.50151-1.541,15.765-.14917,1.96373-.83479,2.45827-2.85116,1.87366-9.419-2.73087-18.86464-5.38045-28.30547-8.04424q-19.68425-5.554-39.38232-11.06431a11.86057,11.86057,0,0,0-3.09141-.30444c-6.33442-.02649-12.66968.037-19.0032-.03876a25.21847,25.21847,0,0,0-7.03644,1.32429q-32.08094,8.79527-64.13666,17.67146c-2.30334.64189-2.74987-.083-2.91656-2.00106-.47-5.40634-1.05517-10.80459-1.66833-16.19864a3.46783,3.46783,0,0,1,1.44317-3.363c5.27746-4.288,10.50121-8.63449,15.7683-12.9339q15.61819-12.74883,31.262-25.46992c3.93863-3.20757,7.84486-6.45191,11.84661-9.58818a2.88094,2.88094,0,0,0,1.07814-2.79218q-.72985-15.13336-1.43043-30.268-.97163-20.44368-1.95635-40.88683c-.43847-9.11036-.9375-18.21857-1.29159-27.33183-.08182-2.10562-.968-1.7323-2.36167-1.13218q-16.18113,6.96766-32.38835,13.88153Q87.54219,260.4076,35.64813,282.57872q-15.98359,6.831-31.96368,13.66927c-.86722.37-1.78826.62812-2.68432.93821Z" transform="translate(-1.00013 0)"/></svg>