<svg id="Ebene_1" data-name="Ebene 1" xmlns="http://www.w3.org/2000/svg" viewBox="0 0 377.8576 397.41693"><defs><style>.cls-1{fill:#fff;}</style></defs><title>planes_outline</title><path class="cls-1" d="M189.42055,6.99542A8.2628,8.2628,0,0,1,194.157,8.479l.12583.08747.1295.08181a19.0111,19.0111,0,0,1,6.54359,6.994,7.63638,7.63638,0,0,1,.42664,6.33692,30.34457,30.34457,0,0,1-4.74169,8.37405l-.02464.03082-.02428.03113A134.49681,134.49681,0,0,1,184.029,44.36847l-.04242.04095-.04177.04169c-4.81073,4.80246-9.77014,9.6449-14.56628,14.32791q-2.5755,2.51483-5.14877,5.03189l-1.171,1.14673c-3.27443,3.207-6.659,6.52185-10.0139,9.73075a9.82659,9.82659,0,0,0-3.02614,9.58764c2.43553,12.59982,4.86369,25.379,7.21994,37.99808q1.34046,7.12061,2.65837,14.24414,1.21362,6.531,2.43582,13.06076l.55331,2.94623c1.91411,10.19278,3.89277,20.72934,5.90345,31.1011-1.811,2.76645-3.61319,5.57186-5.35981,8.29071l-.14949.2327c-3.96035-10.16129-7.92921-20.38393-11.83924-30.49474q-6.78525-17.47725-13.57259-34.95063-3.68393-9.49581-7.3465-19.0015l-.02-.05179c-1.49423-3.87463-3.96231-5.8392-7.33432-5.8392a8.317,8.317,0,0,0-5.8564,2.66327l-.03841.03534q-11.526,10.62035-23.06545,21.24429-4.0879,3.77692-8.16137,7.5694-5.08625,4.72628-10.18652,9.43745a9.06552,9.06552,0,0,0-2.93189,8.09922c1.36443,13.36093,2.728,26.90371,4.05473,40.27053l-.02147.01722c-1.2334-2.21233-2.46582-4.4124-3.67667-6.574l-1.23168-2.19913q-5.75012-10.27044-11.52368-20.52873l-.07432-.132-.08-.12868a13.82871,13.82871,0,0,0-2.18558-2.69328q-1.48536-1.497-2.9812-2.98345c-1.52518-1.52095-3.10227-3.09369-4.61609-4.64418l-.13591-.13919-.14345-.13145a21.49538,21.49538,0,0,0-4.83135-3.33956c-9.03292-5.14557-18.17451-10.34041-27.2588-15.49022l.041-.051q1.96356.195,3.92721.38376,2.5916.25113,5.18287.50958,11.52954,1.16625,23.06318,2.35464,1.11443.11407,2.22909.2244c2.09011.20868,4.25106.42444,6.33792.67712a8.65613,8.65613,0,0,0,7.80443-3.14282q5.76018-6.34359,11.5382-12.68246,7.92019-8.71056,15.83463-17.42615,1.56275-1.7207,3.121-3.44562c2.428-2.68411,4.93873-5.45956,7.42523-8.14709a7.591,7.591,0,0,0-3.04991-12.67823c-6.22854-2.479-12.55191-5.0082-18.79891-7.51907Q52.75724,59.13887,22.63691,47.05133q-2.89191-1.16011-5.78354-2.31967c2.83541-1.36865,5.67715-2.74844,8.49629-4.12531q11.393,2.08516,22.78689,4.168l43.71018,7.99369,1.604.29434c9.81983,1.80194,19.97151,3.66479,29.94257,5.5581a10.837,10.837,0,0,0,10.62559-3.18267c9.04936-9.33756,18.27879-18.75074,27.42775-27.974,6.12909-6.16522,11.72195-11.63858,18.10559-16.18582l.03409-.02427.03381-.02472A28.48009,28.48009,0,0,1,186.242,7.62732l.04928-.01886.04895-.01959a8.25908,8.25908,0,0,1,3.08032-.59345m0-7a15.28738,15.28738,0,0,0-5.67981,1.09406A35.47183,35.47183,0,0,0,175.491,5.57666c-6.96091,4.9584-13.0184,10.92654-19.00859,16.95209Q142.6135,36.51009,128.90913,50.652a3.837,3.837,0,0,1-3.95745,1.13934c-10.60777-2.01535-21.2249-3.95993-31.8414-5.90826Q71.253,41.88486,49.39555,37.88852q-11.99442-2.19268-23.98841-4.38791a2.36207,2.36207,0,0,0-1.56168.04926q-6.87634,3.36588-13.7796,6.68054c-3.10286,1.48987-6.12413,3.13711-9.329,4.431L0,45.39825c.4905.23826.97005.50785,1.47318.71q9.27948,3.71768,18.55746,7.43979Q50.15057,65.63544,80.272,77.71857q9.40262,3.77925,18.8165,7.52609c.81081.32272,1.323.53125.5,1.42087-3.56209,3.85-7.06318,7.757-10.58978,11.6402q-7.913,8.71407-15.83177,17.423-5.86983,6.43964-11.72732,12.89075a1.65629,1.65629,0,0,1-1.574.697c-2.90282-.35193-5.81068-.62113-8.71682-.91843q-11.53506-1.18858-23.07109-2.35547c-3.89037-.39355-7.78227-.75027-11.67227-1.15265a1.99382,1.99382,0,0,0-1.9545.78073c-1.94423,2.44294-3.90155,4.87626-5.909,7.26593-.71223.84781-.82541,1.32416.37231,1.99985q16.64578,9.4264,33.26878,18.89592a14.50489,14.50489,0,0,1,3.4,2.32295c2.54482,2.60645,5.14695,5.157,7.71222,7.74378a6.82287,6.82287,0,0,1,1.13337,1.381q5.76967,10.25141,11.516,20.515c2.756,4.92255,5.51972,9.84128,8.23959,14.78227.32991.59929.62693.884.97874.884a1.58572,1.58572,0,0,0,.94271-.48644c2.3031-1.9779,4.63332-3.92949,7.03778-5.78445a2.55823,2.55823,0,0,0,1.04023-2.87095,9.08152,9.08152,0,0,1-.15523-1.06964q-2.04948-20.66114-4.1595-41.31973a2.05543,2.05543,0,0,1,.67518-1.96663c6.15645-5.66914,12.26664-11.388,18.41359-17.06738q11.53144-10.61655,23.05845-21.23779c.593-.54639.91339-.84656,1.15007-.84653.286,0,.44981.43838.8247,1.41028q3.6645,9.51077,7.35137,19.01407,6.78817,17.47558,13.57322,34.95221,7.50172,19.39848,15.06969,38.77455c.43277,1.108.52414,3.02276,1.55481,3.08236q.03664.00211.07289.00211c1.12044,0,1.98052-1.49609,2.671-2.55289,3.60868-5.52327,7.12777-11.10812,10.74836-16.62314a5.28279,5.28279,0,0,0,.69642-4.23126c-2.22024-11.44468-4.36469-22.8996-6.51624-34.35345-1.70963-9.10106-3.38155-18.207-5.09468-27.30754q-3.56964-19.1175-7.26245-38.21839a2.80427,2.80427,0,0,1,.90768-2.8988c3.81905-3.65073,7.58869-7.35306,11.36386-11.04929,6.59746-6.45941,13.22919-12.88461,19.76337-19.40759a141.0299,141.0299,0,0,0,13.219-14.682A37.39493,37.39493,0,0,0,207.943,24.4205a14.62827,14.62827,0,0,0-.83262-12.11316,25.97069,25.97069,0,0,0-8.95923-9.57693,15.29524,15.29524,0,0,0-8.73061-2.735Z" transform="translate(0 0.00458)"/><path class="cls-1" d="M207.69116,196.42419c4.196,10.76448,8.406,21.60753,12.55582,32.33823q7.07413,18.22127,14.15045,36.43869,3.84088,9.90027,7.6595,19.81109l.02078.05386c.5625,1.45854,2.27426,5.897,7.37,5.897a8.41184,8.41184,0,0,0,5.90328-2.69863l.039-.036Q267.40682,277.156,279.43719,266.08q4.26188-3.93771,8.5087-7.89154,5.30365-4.92832,10.62192-9.8409a9.15331,9.15331,0,0,0,2.96164-8.18617c-1.42914-13.99473-2.85654-28.17222-4.24411-42.15408q.21277-.1701.42337-.33966c1.34232,2.40872,2.68457,4.8049,4.00235,7.15735l1.2865,2.297q5.99482,10.70735,12.014,21.402l.07428.13191.07983.12859a14.11634,14.11634,0,0,0,2.23395,2.75228q1.55036,1.56258,3.11175,3.11412c1.5903,1.58587,3.23477,3.22573,4.81394,4.84324l.13583.13908.14337.13136a22.10953,22.10953,0,0,0,4.97727,3.43921c9.52646,5.42668,19.16287,10.90256,28.7297,16.32564q-.183.22751-.36328.45229-2.12874-.21182-4.25793-.41636-2.70076-.26175-5.40128-.53109-12.02051-1.2159-24.04523-2.455-1.16413-.11912-2.32843-.23441c-2.17889-.21748-4.43155-.44236-6.60852-.706a8.72683,8.72683,0,0,0-7.87469,3.17447q-6.00856,6.61705-12.03559,13.22917-8.25727,9.08127-16.50857,18.16782-1.6307,1.79556-3.25674,3.59545c-2.53089,2.79782-5.14795,5.69087-7.74018,8.49269a7.61742,7.61742,0,0,0,3.071,12.73882c6.49981,2.587,13.09274,5.224,19.6,7.83958q31.40332,12.59742,62.80591,25.19946,3.32858,1.33535,6.65695,2.67c-3.18228,1.53483-6.38,3.08692-9.55319,4.63689q-11.92689-2.18286-23.85339-4.3631l-45.57132-8.33409-1.65995-.30459c-10.24548-1.88-20.83636-3.82341-31.24-5.79893a11.00029,11.00029,0,0,0-10.79635,3.23081c-9.43715,9.73772-19.06156,19.55379-28.60163,29.17121-6.39976,6.43755-12.24035,12.15314-18.91485,16.90759l-.03409.02428-.03383.02472a29.99155,29.99155,0,0,1-6.973,3.79268l-.04927.01882-.049.01959a8.94885,8.94885,0,0,1-8.43017-.95995l-.12587-.08741-.12955-.08186a20.119,20.119,0,0,1-6.925-7.40173,8.25877,8.25877,0,0,1-.4621-6.85264,31.93257,31.93257,0,0,1,4.99-8.81259l.02463-.03086.02432-.03109A140.52176,140.52176,0,0,1,185.7869,350.9357l.0424-.041.04178-.04168c5.01518-5.00654,10.18472-10.05418,15.18408-14.93563q2.6874-2.62405,5.37236-5.25046l1.22051-1.19523c3.41581-3.34547,6.94676-6.80368,10.44718-10.15161a9.94687,9.94687,0,0,0,3.06545-9.71391c-2.5392-13.13618-5.07143-26.46293-7.52876-39.62334q-1.398-7.4265-2.7726-14.85605-1.26478-6.80631-2.5385-13.6114l-.58168-3.09723c-2.00139-10.65735-4.07024-21.674-6.17268-32.51679,1.9095-2.91549,3.81028-5.87442,5.65191-8.74125l.47281-.736m1.673-13.83633c-1.168,0-2.0649,1.55991-2.78469,2.66161-3.7624,5.75845-7.43127,11.5811-11.206,17.33082a5.50764,5.50764,0,0,0-.726,4.41141c2.31472,11.93191,4.55046,23.87454,6.79364,35.816,1.78241,9.48851,3.52549,18.98215,5.3116,28.47014q3.72162,19.93139,7.57162,39.84546a2.92374,2.92374,0,0,1-.94632,3.02222c-3.98167,3.80614-7.91177,7.666-11.84767,11.51964-6.87833,6.73445-13.79242,13.43323-20.60478,20.23386a147.04217,147.04217,0,0,0-13.78182,15.30709,38.98664,38.98664,0,0,0-6.082,10.74118,15.25123,15.25123,0,0,0,.86809,12.62891,27.07645,27.07645,0,0,0,9.34068,9.98464,15.94882,15.94882,0,0,0,15.02391,1.71082,36.9824,36.9824,0,0,0,8.601-4.67814c7.25728-5.16954,13.57269-11.39177,19.81787-17.67382q14.45938-14.57665,28.74718-29.32059a4.00044,4.00044,0,0,1,4.12592-1.18786c11.05941,2.10123,22.12854,4.12859,33.19705,6.15982q22.78779,4.16843,45.5758,8.33491,12.505,2.286,25.00968,4.57472a2.4627,2.4627,0,0,0,1.62814-.0514q7.169-3.50906,14.36624-6.96487c3.235-1.55332,6.38486-3.27068,9.72623-4.61968l.76806-.76827c-.51135-.24846-1.01129-.5295-1.53585-.74032q-9.67452-3.87594-19.34754-7.7565-31.40231-12.602-62.80606-25.19955-9.803-3.94023-19.61758-7.84659c-.84537-.33645-1.37931-.55386-.52127-1.48131,3.71374-4.014,7.36386-8.08728,11.04059-12.13578q8.25-9.085,16.50576-18.16472,6.11981-6.71388,12.2266-13.43956a1.72716,1.72716,0,0,1,1.641-.72673c3.0264.367,6.05813.64751,9.088.95751q12.02619,1.23921,24.05328,2.45578c4.056.41026,8.11362.78223,12.16919,1.20172a2.07869,2.07869,0,0,0,2.03772-.814c2.027-2.54695,4.06769-5.08381,6.16059-7.57527.74255-.88386.86053-1.3806-.38813-2.085q-17.35442-9.82767-34.68518-19.70037a15.12026,15.12026,0,0,1-3.5448-2.42186c-2.65316-2.71745-5.36612-5.37654-8.04059-8.07345a7.111,7.111,0,0,1-1.18157-1.43978q-6.0153-10.68783-12.00632-21.38841c-2.87335-5.13217-5.75476-10.26031-8.59043-15.41163-.3439-.62482-.65356-.92161-1.02035-.92161a1.65336,1.65336,0,0,0-.98285.50716c-2.40118,2.06214-4.8306,4.09673-7.33743,6.03076a2.66693,2.66693,0,0,0-1.08448,2.99314,9.493,9.493,0,0,1,.16187,1.11519q2.13666,21.54067,4.33652,43.07885a2.14285,2.14285,0,0,1-.704,2.05037c-6.41852,5.91051-12.78888,11.87282-19.19745,17.794q-12.02238,11.06856-24.04019,22.142c-.61824.56967-.95223.88257-1.199.88257-.29817,0-.469-.45706-.85984-1.47029q-3.82056-9.91569-7.66432-19.82359-7.07718-18.21957-14.15109-36.44023-7.82112-20.22437-15.71127-40.42532c-.45117-1.15519-.54645-3.15151-1.621-3.21364-.02553-.00147-.05074-.0022-.076-.0022Z" transform="translate(0 0.00458)"/></svg>