<svg id="Ebene_1" data-name="Ebene 1" xmlns="http://www.w3.org/2000/svg" viewBox="0 0 401.5804 402.24707"><defs><style>.cls-1{fill:none;stroke:#fff;stroke-miterlimit:10;stroke-width:6.91374px;}</style></defs><title>settings_outline</title><path class="cls-1" d="M397.33333,214.07351V169.58257h-51.8v2.452A149.486,149.486,0,0,0,313.5641,103.559l48.037-48.13541L330.20555,23.96378,280.41719,73.85413a148.55,148.55,0,0,0-61.10252-23.07889h1.24087V2h-44.4V50.77524h1.24086a148.42288,148.42288,0,0,0-52.3532,17.7379l.03427-.02866Q100.189,43.54513,75.30061,18.60566L43.90505,50.06553q23.4351,22.48506,46.87016,44.9702A149.70418,149.70418,0,0,0,52,167.89v-2.26214H2.66667v44.49094H49.1048a149.281,149.281,0,0,0,24.10612,71.36607q-24.14953,24.199-48.29921,48.39814l31.39556,31.45981q23.27386-23.32153,46.54786-46.64314a179.68916,179.68916,0,0,0,50.50844,27.60347A176.7506,176.7506,0,0,0,177.8,348.96077v48.37256h44.4V348.96077a200.9243,200.9243,0,0,0,20.70571-6.52066,204.9093,204.9093,0,0,0,54.315-30.6305l47.582,47.67944,31.39556-31.45986-50.26707-50.37a149.2219,149.2219,0,0,0,21.34167-63.58565ZM198.35554,304.11778A104.86291,104.86291,0,1,1,303.00387,199.25509,104.75566,104.75566,0,0,1,198.35554,304.11778Z" transform="translate(0.7902 1.45687)"/></svg>