<svg id="Ebene_1" data-name="Ebene 1" xmlns="http://www.w3.org/2000/svg" viewBox="0 0 400 400"><defs><style>.cls-1{fill:#fff;}</style></defs><title>settings</title><path class="cls-1" d="M200,50A150,150,0,1,0,350,200,150,150,0,0,0,200,50Zm0,270A120,120,0,1,1,320,200,120,120,0,0,1,200,320Z"/><rect class="cls-1" y="177" width="75" height="30"/><rect class="cls-1" x="325" y="177" width="75" height="30"/><rect class="cls-1" x="162.5" y="22.5" width="75" height="30" transform="translate(162.5 237.5) rotate(-90)"/><rect class="cls-1" x="162.5" y="347.5" width="75" height="30" transform="translate(-162.5 562.5) rotate(-90)"/><rect class="cls-1" x="288.82664" y="292.66117" width="71.66905" height="30" transform="translate(336.68198 754.78057) rotate(-135)"/><rect class="cls-1" x="60.07233" y="59.08883" width="78.03301" height="30" transform="translate(116.7665 196.54394) rotate(-135)"/><rect class="cls-1" x="267.00557" y="64.75" width="78.48885" height="30" transform="translate(33.30678 239.90969) rotate(-45)"/><rect class="cls-1" x="40.69365" y="293.41117" width="73.79037" height="30" transform="translate(-195.35438 145.19513) rotate(-45)"/></svg>