<svg id="Ebene_1" data-name="Ebene 1" xmlns="http://www.w3.org/2000/svg" xmlns:xlink="http://www.w3.org/1999/xlink" viewBox="0 0 200 200"><defs><style>.cls-1{fill:url(#Unbenannter_Verlauf_43);}.cls-2{fill:#fff;}</style><linearGradient id="Unbenannter_Verlauf_43" x1="134.21132" y1="193.99484" x2="65.78868" y2="6.00516" gradientUnits="userSpaceOnUse"><stop offset="0" stop-color="#296a9f"/><stop offset="0.03913" stop-color="#275e8c"/><stop offset="0.1076" stop-color="#234d71"/><stop offset="0.18635" stop-color="#213f5b"/><stop offset="0.27833" stop-color="#1f354a"/><stop offset="0.39202" stop-color="#1d2d3f"/><stop offset="0.55153" stop-color="#1c2938"/><stop offset="0.99438" stop-color="#1c2836"/></linearGradient></defs><title>splash</title><circle class="cls-1" cx="100" cy="100" r="100"/><path class="cls-2" d="M124.96416,217.35245,114.809,190.701h7.60448l5.14911,15.18511a27.10078,27.10078,0,0,1,1.07273,5.459h.143a23.73353,23.73353,0,0,1,1.07273-5.459l5.12527-15.18511h7.60447L132.4256,217.35245Z" transform="translate(-100 -100)"/><path class="cls-2" d="M168.3025,217.35245l-2.52688-8.29579h-12.7059l-2.52688,8.29579h-7.96205l12.30065-34.99487h9.03478l12.34833,34.99487Zm-4.29092-14.49379q-3.50426-11.27511-3.94527-12.75358-.44125-1.47786-.63172-2.33617-.78667,3.05156-4.50547,15.08975Z" transform="translate(-100 -100)"/><path class="cls-2" d="M195.45452,188.15033a7.53029,7.53029,0,0,0-6.46023,3.13475q-2.28849,3.13524-2.28849,8.7368,0,11.657,8.74872,11.657a27.65209,27.65209,0,0,0,8.89175-1.83557v6.198a24.69329,24.69329,0,0,1-9.58307,1.78788q-7.60458,0-11.63317-4.61274-4.02882-4.61275-4.0287-13.24227a21.62207,21.62207,0,0,1,1.97859-9.52347,14.29979,14.29979,0,0,1,5.68548-6.26952A16.81832,16.81832,0,0,1,195.45452,182a23.45436,23.45436,0,0,1,10.20286,2.45536l-2.38384,6.0073a39.53846,39.53846,0,0,0-3.93335-1.621A11.737,11.737,0,0,0,195.45452,188.15033Z" transform="translate(-100 -100)"/><path class="cls-2" d="M240.6761,199.59279q0,8.60616-4.89881,13.18268-4.89881,4.577-14.14813,4.577H211.76V182.50061h10.94186q8.53393,0,13.25419,4.50547Q240.6761,191.51156,240.6761,199.59279Zm-7.676.19071q0-11.22792-9.9168-11.22792H219.15V211.2498h3.17051Q232.99987,211.2498,233.00011,199.7835Z" transform="translate(-100 -100)"/><path class="cls-2" d="M262.65517,217.35245,254.264,190.00973h-.21455q.45269,8.34369.45293,11.13256v16.21016h-6.60326V182.50061H257.959L266.2071,209.152h.143l8.74872-26.65141h10.05983v34.85184h-6.88932V200.85623q0-1.16784.03576-2.69375.03576-1.52542.32182-8.10508h-.21454l-8.98711,27.29505Z" transform="translate(-100 -100)"/></svg>